<svg version="1.1" xmlns="http://www.w3.org/2000/svg" viewBox="0 0 1889.75 763" width="1889.75" height="763">
  <!-- svg-source:excalidraw -->
  
  <defs>
    <style class="style-fonts">
      @font-face {
        font-family: "Virgil";
        src: url("https://excalidraw.com/Virgil.woff2");
      }
      @font-face {
        font-family: "Cascadia";
        src: url("https://excalidraw.com/Cascadia.woff2");
      }
      @font-face {
        font-family: "Assistant";
        src: url("https://excalidraw.com/Assistant-Regular.woff2");
      }
    </style>
    
  </defs>
  <rect x="0" y="0" width="1889.75" height="763" fill="#ffffff"></rect><g stroke-linecap="round" transform="translate(1298.75 10) rotate(0 290.5 371.5)"><path d="M32 0 C193.55 0.49, 354.17 0.67, 549 0 M32 0 C170.99 -2.11, 310.31 -1.85, 549 0 M549 0 C571.16 -1.74, 581.77 11.21, 581 32 M549 0 C569.67 1.91, 580.79 10.07, 581 32 M581 32 C580.56 275.77, 579.51 520.23, 581 711 M581 32 C581.85 215.27, 581.41 397.77, 581 711 M581 711 C580.07 732.16, 572.29 743.86, 549 743 M581 711 C581.95 731.39, 570.25 743.69, 549 743 M549 743 C384.72 745.25, 221.18 744.91, 32 743 M549 743 C439.94 744.12, 330 744.17, 32 743 M32 743 C11.31 743.91, -0.79 732.45, 0 711 M32 743 C9.44 740.95, 0.19 732.44, 0 711 M0 711 C-0.44 482.83, -0.27 254.01, 0 32 M0 711 C-0.37 502.79, 0.34 294.47, 0 32 M0 32 C-0.99 10.84, 9.79 -0.46, 32 0 M0 32 C1.26 11.73, 10.99 -0.68, 32 0" stroke="#1e1e1e" stroke-width="2" fill="none"></path></g><g stroke-linecap="round" transform="translate(967.75 33) rotate(0 124 360)"><path d="M32 0 C76.3 -0.52, 122.93 -0.22, 216 0 M32 0 C91.42 0.44, 150.08 -0.33, 216 0 M216 0 C236.77 0.93, 246.51 12.2, 248 32 M216 0 C238 -1.54, 246.75 8.43, 248 32 M248 32 C246.44 269.78, 246.27 508.15, 248 688 M248 32 C248.22 290.51, 248.39 549.08, 248 688 M248 688 C247.49 708.47, 239.23 720.26, 216 720 M248 688 C246.93 707.5, 235.7 720.93, 216 720 M216 720 C162.89 720.46, 108.37 720.54, 32 720 M216 720 C160.79 720.7, 103.57 720.1, 32 720 M32 720 C11.65 721.52, -0.9 710.63, 0 688 M32 720 C11.81 721.47, -0.33 710.53, 0 688 M0 688 C1.79 439.71, 1.78 191.65, 0 32 M0 688 C-0.58 427.66, -0.93 167, 0 32 M0 32 C1.75 11.01, 12.52 0.32, 32 0 M0 32 C-1.82 12.9, 11.88 0.04, 32 0" stroke="#1e1e1e" stroke-width="2" fill="none"></path></g><g stroke-linecap="round" transform="translate(589.75 135) rotate(0 146.5 118)"><path d="M32 0 C83.92 -3.1, 137.58 -0.4, 261 0 M32 0 C82.35 1.51, 132.58 1.72, 261 0 M261 0 C281.6 -1.29, 292.95 10.12, 293 32 M261 0 C281 0.65, 293.32 12.77, 293 32 M293 32 C295.16 69.52, 294.87 108.08, 293 204 M293 32 C294.81 83.68, 294.72 136.07, 293 204 M293 204 C292.74 227.14, 280.64 236.37, 261 236 M293 204 C294.67 225.8, 281.48 237.29, 261 236 M261 236 C192.4 236.32, 121.54 236.18, 32 236 M261 236 C193.45 235.42, 126.98 233.95, 32 236 M32 236 C10.01 236.96, 0.22 223.66, 0 204 M32 236 C12.35 235.88, 2.02 224.73, 0 204 M0 204 C-0.4 162.47, -1.03 124.05, 0 32 M0 204 C2.2 163.51, 0.47 123.75, 0 32 M0 32 C-1.24 12.03, 10.69 0.56, 32 0 M0 32 C-1.76 9.19, 10.98 -0.74, 32 0" stroke="#1e1e1e" stroke-width="2" fill="none"></path></g><g transform="translate(1600.75 26) rotate(0 131.08749389648438 20.700000000000003)"><text x="0" y="33.120703125" font-family="Helvetica, Segoe UI Emoji" font-size="36px" fill="#2f9e44" text-anchor="start" style="white-space: pre;" direction="ltr" dominant-baseline="alphabetic">Red Corporativa</text></g><g stroke-linecap="round" transform="translate(1329.75 85) rotate(0 83.5 57)"><path d="M28.5 0 C52.49 1.3, 79.66 1.24, 138.5 0 M28.5 0 C56.44 -1.06, 83.28 -1.22, 138.5 0 M138.5 0 C158.93 -0.5, 165.62 7.97, 167 28.5 M138.5 0 C155.38 -1.49, 165.03 10.89, 167 28.5 M167 28.5 C167.17 43.32, 168.45 54.52, 167 85.5 M167 28.5 C166.48 43.44, 166.68 58.77, 167 85.5 M167 85.5 C166.59 103.68, 156.06 113.27, 138.5 114 M167 85.5 C168.39 105.78, 158.37 113.93, 138.5 114 M138.5 114 C101.77 113.15, 66.72 114.01, 28.5 114 M138.5 114 C112.4 114.04, 88.17 114.78, 28.5 114 M28.5 114 C10.3 114.57, -0.71 104.05, 0 85.5 M28.5 114 C11.76 114.78, -0.13 105.11, 0 85.5 M0 85.5 C-1.04 71.32, -0.35 57.22, 0 28.5 M0 85.5 C-0.04 70.84, 0.6 55.13, 0 28.5 M0 28.5 C0.51 10.97, 10.67 -0.1, 28.5 0 M0 28.5 C1.48 8.56, 10.27 0.37, 28.5 0" stroke="#2f9e44" stroke-width="2" fill="none"></path></g><g stroke-linecap="round" transform="translate(1338.75 341) rotate(0 83.5 57)"><path d="M28.5 0 C69.1 -0.72, 106.75 0.52, 138.5 0 M28.5 0 C63.38 -0.52, 99.57 -0.61, 138.5 0 M138.5 0 C157.58 -2, 167.85 9.49, 167 28.5 M138.5 0 C158.69 0.27, 166.44 11.8, 167 28.5 M167 28.5 C166.4 49.73, 165.52 70.25, 167 85.5 M167 28.5 C166.57 41.28, 166.53 53.49, 167 85.5 M167 85.5 C166.9 104.83, 158.5 115.4, 138.5 114 M167 85.5 C168.68 103.82, 157.22 116.12, 138.5 114 M138.5 114 C95.41 116.58, 51.59 113.25, 28.5 114 M138.5 114 C102.89 113.75, 68.13 113.6, 28.5 114 M28.5 114 C11.27 113.91, -1.38 105.78, 0 85.5 M28.5 114 C11.59 113.03, 0.63 104.67, 0 85.5 M0 85.5 C-0.48 67, -0.85 45.53, 0 28.5 M0 85.5 C-1.13 69.15, -1.18 52.99, 0 28.5 M0 28.5 C1.54 7.87, 8.25 1.36, 28.5 0 M0 28.5 C-1.5 10.63, 9.95 2.08, 28.5 0" stroke="#2f9e44" stroke-width="2" fill="none"></path></g><g stroke-linecap="round" transform="translate(1329.75 618) rotate(0 83.5 57)"><path d="M28.5 0 C68.76 0.71, 107.68 -0.05, 138.5 0 M28.5 0 C58.86 -1.03, 89.88 -0.64, 138.5 0 M138.5 0 C157.49 1.03, 167.23 9.01, 167 28.5 M138.5 0 C159.8 1.63, 168.98 7.52, 167 28.5 M167 28.5 C166.47 40.83, 166.79 56.28, 167 85.5 M167 28.5 C167.58 43.46, 167.42 59.02, 167 85.5 M167 85.5 C168.4 105.96, 156.91 113.76, 138.5 114 M167 85.5 C169.12 106.79, 159.79 116.29, 138.5 114 M138.5 114 C99 114.88, 65.03 112.84, 28.5 114 M138.5 114 C113.5 114.32, 87.41 112.74, 28.5 114 M28.5 114 C10.78 115.82, -0.84 105.05, 0 85.5 M28.5 114 C9.67 115.14, 1.47 102.69, 0 85.5 M0 85.5 C-0.54 68.49, 0.78 50.14, 0 28.5 M0 85.5 C0.29 73.7, -0.85 59.74, 0 28.5 M0 28.5 C1.36 8.19, 10.48 0.39, 28.5 0 M0 28.5 C2.08 10.9, 8.9 1.22, 28.5 0" stroke="#2f9e44" stroke-width="2" fill="none"></path></g><g transform="translate(1341.75 99.6) rotate(0 70.375 16.099999999999994)"><text x="0" y="25.760546874999996" font-family="Helvetica, Segoe UI Emoji" font-size="28px" fill="#2f9e44" text-anchor="start" style="white-space: pre;" direction="ltr" dominant-baseline="alphabetic">Symfonos1</text></g><g transform="translate(1351.75 351) rotate(0 70.375 16.099999999999994)"><text x="0" y="25.760546874999996" font-family="Helvetica, Segoe UI Emoji" font-size="28px" fill="#2f9e44" text-anchor="start" style="white-space: pre;" direction="ltr" dominant-baseline="alphabetic">Symfonos2</text></g><g transform="translate(1345.75 643) rotate(0 70.375 16.100000000000023)"><text x="0" y="25.760546874999996" font-family="Helvetica, Segoe UI Emoji" font-size="28px" fill="#2f9e44" text-anchor="start" style="white-space: pre;" direction="ltr" dominant-baseline="alphabetic">Symfonos3</text></g><g transform="translate(672.75 152) rotate(0 53.375 16.099999999999994)"><text x="0" y="25.760546874999996" font-family="Helvetica, Segoe UI Emoji" font-size="28px" fill="#2f9e44" text-anchor="start" style="white-space: pre;" direction="ltr" dominant-baseline="alphabetic">ATTACK</text></g><g transform="translate(645.75 193) rotate(0 71.9749984741211 16.099999999999994)"><text x="0" y="25.760546874999996" font-family="Helvetica, Segoe UI Emoji" font-size="28px" fill="#2f9e44" text-anchor="start" style="white-space: pre;" direction="ltr" dominant-baseline="alphabetic">IP: 10.0.2.4</text></g><g transform="translate(1347.75 152) rotate(0 68.0625 16.099999999999994)"><text x="0" y="25.760546874999996" font-family="Helvetica, Segoe UI Emoji" font-size="28px" fill="#2f9e44" text-anchor="start" style="white-space: pre;" direction="ltr" dominant-baseline="alphabetic">IP:10.0.2.5</text></g><g stroke-linecap="round" transform="translate(989.75 47) rotate(0 95 24.5)"><path d="M12.25 0 C52.72 2.3, 91.62 2.11, 177.75 0 M12.25 0 C56.5 0.13, 98.54 -0.96, 177.75 0 M177.75 0 C184.86 0.87, 189.32 6.04, 190 12.25 M177.75 0 C185.86 0.19, 191.86 2.67, 190 12.25 M190 12.25 C190.68 15.85, 188.26 24.4, 190 36.75 M190 12.25 C189.22 20.17, 190.25 27.97, 190 36.75 M190 36.75 C191.75 45.61, 185.85 49.54, 177.75 49 M190 36.75 C189 43.4, 183.71 47.01, 177.75 49 M177.75 49 C141.99 47.99, 105.62 50.25, 12.25 49 M177.75 49 C115.3 50.69, 53.99 50.69, 12.25 49 M12.25 49 C2.92 47.36, 1.7 46.07, 0 36.75 M12.25 49 C3.47 49.26, -0.01 46.57, 0 36.75 M0 36.75 C-1.77 29.3, -0.35 25.04, 0 12.25 M0 36.75 C-0.95 31.45, -0.45 25.55, 0 12.25 M0 12.25 C0.7 5.71, 3.72 -1.65, 12.25 0 M0 12.25 C-1.23 6.06, 2.5 -0.91, 12.25 0" stroke="#e03131" stroke-width="2" fill="none"></path></g><g transform="translate(1034.75 54) rotate(0 35.974998474121094 16.099999999999994)"><text x="0" y="25.760546874999996" font-family="Helvetica, Segoe UI Emoji" font-size="28px" fill="#e03131" text-anchor="start" style="white-space: pre;" direction="ltr" dominant-baseline="alphabetic">chisel</text></g><g stroke-linecap="round" transform="translate(997.75 278) rotate(0 98 57.5)"><path d="M28.75 0 C72.03 -1.01, 112.72 -2.23, 167.25 0 M28.75 0 C80.97 1.38, 133.8 1.04, 167.25 0 M167.25 0 C186.31 1.84, 195.06 11.01, 196 28.75 M167.25 0 C185.98 0.32, 195.53 7.63, 196 28.75 M196 28.75 C196.78 47.02, 195.95 61.82, 196 86.25 M196 28.75 C196.24 43.73, 195.35 61.3, 196 86.25 M196 86.25 C197.84 103.47, 187.22 115.58, 167.25 115 M196 86.25 C194.66 106.11, 185.28 115.86, 167.25 115 M167.25 115 C122.34 116.01, 75.88 115.89, 28.75 115 M167.25 115 C123.34 115.65, 78.76 114.27, 28.75 115 M28.75 115 C10.86 116.53, 0.7 106.14, 0 86.25 M28.75 115 C10.02 115.04, -0.46 105.08, 0 86.25 M0 86.25 C0.05 70.04, -1.06 57.31, 0 28.75 M0 86.25 C0.98 63.22, -0.25 40.73, 0 28.75 M0 28.75 C-0.89 9.66, 7.92 0.28, 28.75 0 M0 28.75 C1.05 8.74, 11.26 2.03, 28.75 0" stroke="#1971c2" stroke-width="2" fill="none"></path></g><g transform="translate(1022.75 288) rotate(0 75.0875015258789 16.099999999999994)"><text x="0" y="25.760546874999996" font-family="Helvetica, Segoe UI Emoji" font-size="28px" fill="#1971c2" text-anchor="start" style="white-space: pre;" direction="ltr" dominant-baseline="alphabetic">proxychains</text></g><g stroke-linecap="round"><g transform="translate(1337.75 402.764705882353) rotate(0 -70.49999999999994 -24.882352941176435)"><path d="M-0.78 0.2 C-24.19 -8.36, -117.92 -42.04, -141.25 -50.42 M1.01 -0.75 C-22.51 -9.24, -118.59 -41.19, -142.32 -49.23" stroke="#1971c2" stroke-width="2" fill="none"></path></g><g transform="translate(1337.75 402.764705882353) rotate(0 -70.49999999999994 -24.882352941176435)"><path d="M-117.33 -49.86 C-122.86 -50.28, -130.15 -49.32, -142.32 -49.23 M-117.33 -49.86 C-124.27 -50.34, -131.73 -50.19, -142.32 -49.23" stroke="#1971c2" stroke-width="2" fill="none"></path></g><g transform="translate(1337.75 402.764705882353) rotate(0 -70.49999999999994 -24.882352941176435)"><path d="M-122.77 -33.65 C-127.15 -37.84, -133.16 -40.68, -142.32 -49.23 M-122.77 -33.65 C-128.33 -38.57, -134.3 -42.85, -142.32 -49.23" stroke="#1971c2" stroke-width="2" fill="none"></path></g></g><mask></mask><g stroke-linecap="round"><g transform="translate(996.75 330.31976744186045) rotate(0 -73.52608695652174 -49.159883720930225)"><path d="M-0.78 -0.22 C-25.46 -16.53, -123.81 -81.32, -148.09 -97.48 M1.02 -1.38 C-23.3 -18.06, -121.27 -82.91, -145.92 -99.17" stroke="#1971c2" stroke-width="2" fill="none"></path></g><g transform="translate(996.75 330.31976744186045) rotate(0 -73.52608695652174 -49.159883720930225)"><path d="M-121.61 -93.34 C-129.31 -96.98, -134.87 -95.95, -145.92 -99.17 M-121.61 -93.34 C-130.36 -94.68, -140.42 -96.96, -145.92 -99.17" stroke="#1971c2" stroke-width="2" fill="none"></path></g><g transform="translate(996.75 330.31976744186045) rotate(0 -73.52608695652174 -49.159883720930225)"><path d="M-131.04 -79.08 C-135.95 -86.94, -138.67 -90.21, -145.92 -99.17 M-131.04 -79.08 C-136.18 -86.05, -142.52 -93.95, -145.92 -99.17" stroke="#1971c2" stroke-width="2" fill="none"></path></g></g><mask></mask><g stroke-linecap="round" transform="translate(1578 233) rotate(0 90 45.5)"><path d="M22.75 0 C52.48 1.09, 82.59 1.04, 157.25 0 C175.86 -0.5, 177.35 4.19, 180 22.75 C180.89 37.44, 182.02 52.2, 180 68.25 C183.4 81.46, 174.96 88.69, 157.25 91 C112.85 93.64, 59.39 89.33, 22.75 91 C9.15 90.14, 0.92 85.68, 0 68.25 C-0.18 56.52, 1.33 46.58, 0 22.75 C-3.14 7.77, 7.85 -1.92, 22.75 0" stroke="none" stroke-width="0" fill="#ffec99"></path><path d="M22.75 0 C59.78 -0.64, 101.62 -1.58, 157.25 0 M22.75 0 C57.93 -1.44, 93.94 -0.23, 157.25 0 M157.25 0 C173.53 -0.23, 180.64 7.8, 180 22.75 M157.25 0 C174.63 0.72, 178.3 7.68, 180 22.75 M180 22.75 C181.34 38.25, 179.82 54.77, 180 68.25 M180 22.75 C179.37 32.13, 179.11 42.1, 180 68.25 M180 68.25 C180.99 81.93, 172.25 92.07, 157.25 91 M180 68.25 C178.41 82.89, 171.8 91.29, 157.25 91 M157.25 91 C124.39 91.52, 88.8 92.22, 22.75 91 M157.25 91 C104.59 92.03, 50.76 91.19, 22.75 91 M22.75 91 C6.46 92.22, -0.13 81.61, 0 68.25 M22.75 91 C8.74 92.07, 0.14 85.57, 0 68.25 M0 68.25 C-1.01 57.16, 0.93 44.85, 0 22.75 M0 68.25 C-0.86 54.16, -0.96 41, 0 22.75 M0 22.75 C1.09 6.14, 8.83 1.36, 22.75 0 M0 22.75 C-2.13 9.11, 8.13 -0.13, 22.75 0" stroke="#f08c00" stroke-width="2" fill="none"></path></g><g transform="translate(1629.75 257) rotate(0 33.63750076293945 16.099999999999994)"><text x="0" y="25.760546874999996" font-family="Helvetica, Segoe UI Emoji" font-size="28px" fill="#f08c00" text-anchor="start" style="white-space: pre;" direction="ltr" dominant-baseline="alphabetic">socat</text></g><g stroke-linecap="round"><g transform="translate(1512.5 406.25) rotate(0 67.5 -40.625)"><path d="M1.16 0.53 C23.46 -12.81, 112.56 -67.03, 134.84 -80.58 M0.31 -0.24 C22.35 -13.87, 111.53 -68.58, 133.81 -82.36" stroke="#f08c00" stroke-width="2" fill="none"></path></g><g transform="translate(1512.5 406.25) rotate(0 67.5 -40.625)"><path d="M118.29 -62.76 C125.21 -70.69, 131.39 -78.25, 133.81 -82.36 M118.29 -62.76 C123.79 -68.81, 128.62 -75.72, 133.81 -82.36" stroke="#f08c00" stroke-width="2" fill="none"></path></g><g transform="translate(1512.5 406.25) rotate(0 67.5 -40.625)"><path d="M109.32 -77.32 C119.61 -79.76, 129.23 -81.73, 133.81 -82.36 M109.32 -77.32 C117.98 -78.49, 125.83 -80.48, 133.81 -82.36" stroke="#f08c00" stroke-width="2" fill="none"></path></g></g><mask></mask><g stroke-linecap="round"><g transform="translate(1652.5 228.75) rotate(0 -76.875 -41.875)"><path d="M0.53 -0.71 C-25.11 -14.38, -127.54 -68.9, -153.26 -82.56 M-0.65 1.52 C-26.46 -12.39, -128.3 -69.73, -153.95 -84.06" stroke="#f08c00" stroke-width="2" fill="none"></path></g><g transform="translate(1652.5 228.75) rotate(0 -76.875 -41.875)"><path d="M-129.28 -80.03 C-139.1 -80.52, -144.59 -82.79, -153.95 -84.06 M-129.28 -80.03 C-138.22 -82.1, -148.95 -83.92, -153.95 -84.06" stroke="#f08c00" stroke-width="2" fill="none"></path></g><g transform="translate(1652.5 228.75) rotate(0 -76.875 -41.875)"><path d="M-137.64 -65.11 C-144.46 -70.87, -147.01 -78.38, -153.95 -84.06 M-137.64 -65.11 C-143.26 -73.06, -150.73 -80.7, -153.95 -84.06" stroke="#f08c00" stroke-width="2" fill="none"></path></g></g><mask></mask><g stroke-linecap="round"><g transform="translate(1327.5 138.75) rotate(0 -220 7.5)"><path d="M0.69 0.23 C-72.71 2.72, -365.91 11.69, -439.45 13.97 M-0.41 -0.7 C-74.01 2, -366.58 12.4, -440.12 14.96" stroke="#f08c00" stroke-width="2" fill="none"></path></g><g transform="translate(1327.5 138.75) rotate(0 -220 7.5)"><path d="M-416.94 5.59 C-425.47 10.21, -436.4 11.96, -440.12 14.96 M-416.94 5.59 C-421.91 8.11, -426.84 9.02, -440.12 14.96" stroke="#f08c00" stroke-width="2" fill="none"></path></g><g transform="translate(1327.5 138.75) rotate(0 -220 7.5)"><path d="M-416.34 22.68 C-424.96 20.79, -436.12 16.02, -440.12 14.96 M-416.34 22.68 C-421.32 21.61, -426.38 18.93, -440.12 14.96" stroke="#f08c00" stroke-width="2" fill="none"></path></g></g><mask></mask><g stroke-linecap="round"><g transform="translate(1343.75 83.75) rotate(0 -79.375 -16.25)"><path d="M1.18 -0.66 C-25.17 -6.01, -131.57 -27.97, -158.28 -33.21 M0.35 1.6 C-26.12 -3.5, -132.26 -26.08, -158.98 -32.05" stroke="#e03131" stroke-width="2" fill="none"></path></g><g transform="translate(1343.75 83.75) rotate(0 -79.375 -16.25)"><path d="M-134.21 -35.42 C-142.52 -33.42, -149.77 -33.73, -158.98 -32.05 M-134.21 -35.42 C-142.69 -33.64, -151.2 -32.19, -158.98 -32.05" stroke="#e03131" stroke-width="2" fill="none"></path></g><g transform="translate(1343.75 83.75) rotate(0 -79.375 -16.25)"><path d="M-137.83 -18.71 C-144.93 -21.58, -151.14 -26.73, -158.98 -32.05 M-137.83 -18.71 C-144.96 -22.5, -152.26 -26.63, -158.98 -32.05" stroke="#e03131" stroke-width="2" fill="none"></path></g></g><mask></mask><g stroke-linecap="round"><g transform="translate(988.75 46.25) rotate(0 -92.5 34.375)"><path d="M-0.39 -0.17 C-31.39 11.45, -154.83 58.29, -185.6 69.81 M1.6 -1.3 C-29.03 9.99, -151.98 56.3, -183.2 68.24" stroke="#e03131" stroke-width="2" fill="none"></path></g><g transform="translate(988.75 46.25) rotate(0 -92.5 34.375)"><path d="M-164.27 51.92 C-170.85 56.31, -175.12 62.76, -183.2 68.24 M-164.27 51.92 C-170.57 56.64, -176.26 62.11, -183.2 68.24" stroke="#e03131" stroke-width="2" fill="none"></path></g><g transform="translate(988.75 46.25) rotate(0 -92.5 34.375)"><path d="M-158.21 67.91 C-166.83 66.94, -173.12 68.06, -183.2 68.24 M-158.21 67.91 C-166.42 67.56, -174.04 67.95, -183.2 68.24" stroke="#e03131" stroke-width="2" fill="none"></path></g></g><mask></mask><g transform="translate(22.5 460.85) rotate(0 405.9750061035156 11.5)"><text x="0" y="18.400390625" font-family="Helvetica, Segoe UI Emoji" font-size="20px" fill="#e03131" text-anchor="start" style="white-space: pre;" direction="ltr" dominant-baseline="alphabetic">&gt; permite crear túneles TCP encapsulados en tráfico HTTP y protegidos por una capa SSH</text></g><g transform="translate(16.25 503.75) rotate(0 432.23748779296875 11.5)"><text x="0" y="18.400390625" font-family="Helvetica, Segoe UI Emoji" font-size="20px" fill="#f08c00" text-anchor="start" style="white-space: pre;" direction="ltr" dominant-baseline="alphabetic">&gt; con socat las máquinas fuera de nuestra interfaz de red consiguen acceder a nuestra máquina.</text></g><g transform="translate(10 545) rotate(0 422.625 11.5)"><text x="0" y="18.400390625" font-family="Helvetica, Segoe UI Emoji" font-size="20px" fill="#1971c2" text-anchor="start" style="white-space: pre;" direction="ltr" dominant-baseline="alphabetic">&gt; Proxychains es capaz de resolver peticiones DNS (que funciona con UDP) a través del proxy</text></g></svg>